<?xml version="1.0" standalone="no"?>
<!DOCTYPE svg PUBLIC "-//W3C//DTD SVG 20010904//EN"
 "http://www.w3.org/TR/2001/REC-SVG-20010904/DTD/svg10.dtd">
<svg version="1.0" xmlns="http://www.w3.org/2000/svg"
 width="512.000000pt" height="512.000000pt" viewBox="0 0 512.000000 512.000000"
 preserveAspectRatio="xMidYMid meet">
<metadata>
Created by potrace 1.11, written by Peter Selinger 2001-2013
</metadata>
<g transform="translate(0.000000,512.000000) scale(0.100000,-0.100000)"
fill="#000000" stroke="none">
<path d="M1810 5078 c-66 -79 -72 -93 -13 -29 49 53 61 61 66 47 4 -10 4 -23
0 -30 -5 -7 -118 -137 -253 -290 -135 -153 -247 -282 -249 -288 -10 -30 37 21
269 284 l253 288 22 -38 c12 -20 165 -276 339 -569 174 -292 316 -534 316
-537 0 -3 -6 -3 -13 0 -12 4 -633 -127 -736 -156 -19 -5 -36 -8 -37 -7 -1 1
-90 162 -199 357 -221 397 -203 365 -211 357 -3 -3 85 -170 197 -372 178 -318
207 -365 224 -360 11 3 72 17 135 30 63 14 122 28 132 31 12 3 22 -9 40 -48
36 -78 119 -172 209 -236 90 -65 87 -54 49 -192 -70 -253 -146 -568 -181 -750
-11 -58 -31 -150 -44 -205 -60 -251 -159 -843 -215 -1285 -32 -247 -50 -408
-50 -436 0 -27 15 -42 137 -140 198 -158 232 -184 293 -230 30 -23 64 -50 75
-61 11 -10 42 -36 70 -58 27 -22 59 -48 69 -58 11 -9 23 -17 27 -17 3 0 46 30
95 67 49 37 112 83 139 103 47 34 155 114 392 292 57 43 103 84 103 92 0 18
-37 304 -49 381 -6 33 -19 125 -31 205 -53 378 -59 418 -79 520 -18 93 -41
219 -67 365 -31 177 -46 254 -84 435 -17 80 -35 167 -40 194 -6 27 -14 65 -20
85 -5 20 -26 104 -45 186 -20 83 -52 212 -71 288 -19 76 -34 144 -34 151 0 8
28 30 63 49 103 59 193 166 227 270 6 20 14 37 16 37 3 0 73 -18 155 -40 158
-42 179 -46 164 -31 -9 8 -684 191 -706 191 -6 0 -8 -4 -4 -9 3 -5 31 -15 62
-22 31 -7 52 -14 47 -16 -5 -2 -49 5 -96 15 l-87 18 335 588 c185 324 338 594
340 601 4 9 -154 12 -692 14 -383 1 -701 4 -708 7 -6 2 -27 -15 -46 -38z
m1418 7 c2 -2 -636 -1130 -652 -1152 -1 -1 -146 242 -324 540 -177 298 -333
560 -346 582 l-24 40 671 -3 c370 -2 673 -5 675 -7z"/>
<path d="M3270 5093 c1 -4 115 -143 255 -307 l255 -300 -24 -40 c-137 -238
-387 -698 -382 -703 8 -8 -12 -42 217 370 l204 368 59 -5 c32 -3 187 -6 342
-6 l284 0 0 -2218 0 -2219 -1282 -6 c-706 -4 -1521 -8 -1813 -8 -291 -1 -582
-5 -645 -9 -151 -9 1025 -10 2530 -1 808 4 1207 3 1212 -4 5 -6 8 -6 8 2 0 6
8 14 18 16 16 4 16 5 0 6 -17 1 -18 114 -18 2226 0 1224 -1 2226 -2 2227 -2 1
-158 4 -348 7 l-344 6 -131 155 c-208 249 -377 445 -386 448 -5 2 -9 0 -9 -5z"/>
<path d="M1714 4958 l-19 -23 23 19 c21 18 27 26 19 26 -2 0 -12 -10 -23 -22z"/>
<path d="M1654 4885 c-22 -25 -62 -71 -89 -103 -28 -31 -73 -84 -100 -117 -26
-33 -53 -65 -59 -70 -37 -35 -68 -75 -60 -75 5 0 59 59 119 131 61 72 138 164
173 205 34 41 61 74 59 74 -3 0 -22 -20 -43 -45z"/>
<path d="M603 2460 c0 -1103 3 -2108 6 -2235 4 -126 8 674 8 1780 0 1106 -3
2111 -6 2235 -4 124 -8 -677 -8 -1780z"/>
<path d="M645 4450 c17 -4 181 -8 365 -7 197 0 314 3 285 7 -65 11 -690 10
-650 0z"/>
</g>
</svg>
